<?xml version="1.0" encoding="utf-8"?>
<!-- Generator: Adobe Illustrator 16.0.3, SVG Export Plug-In . SVG Version: 6.00 Build 0)  -->
<!DOCTYPE svg PUBLIC "-//W3C//DTD SVG 1.1//EN" "http://www.w3.org/Graphics/SVG/1.1/DTD/svg11.dtd">
<svg version="1.1" id="Calque_1" xmlns="http://www.w3.org/2000/svg" xmlns:xlink="http://www.w3.org/1999/xlink" x="0px" y="0px"
	 width="62px" height="45px" viewBox="0 0 62 45" enable-background="new 0 0 62 45" xml:space="preserve">
<g>
	<path fill="#CC3B17" d="M43.779,1.308c-1.371-0.445-2.786-0.678-4.213-0.839c-1.43-0.162-2.864-0.23-4.298-0.04
		c-0.891,0.118-1.677,0.465-2.339,1.094c-0.505,0.479-0.925,1.025-1.367,1.557c-0.521,0.625-1.118,1.192-1.614,1.827
		c-0.801,1.024-1.963,1.482-2.994,2.148c-0.169,0.108-0.278,0.06-0.329-0.164c-0.218-0.968-0.606-1.867-1.122-2.715
		C25.361,3.944,25.22,3.729,25,3.565c-0.354-0.264-0.498-0.216-0.675,0.184c-0.3,0.681-0.256,1.353,0.008,2.022
		c0.09,0.227,0.024,0.347-0.189,0.413c-0.88,0.275-1.756,0.565-2.661,0.757c-0.089,0.019-0.161,0.023-0.216-0.075
		c-0.136-0.244-0.35-0.468-0.407-0.728c-0.121-0.554-0.557-0.802-0.935-1.113c-0.154-0.127-0.265-0.112-0.344,0.114
		c-0.189,0.537-0.208,1.095-0.233,1.65c-0.034,0.723,0.227,1.387,0.479,2.045c0.08,0.21,0.106,0.331-0.165,0.39
		c-0.791,0.172-1.589,0.234-2.397,0.218c-1.858-0.04-3.44-0.863-5.01-1.734c-0.84-0.465-1.63-1.013-2.486-1.45
		C9.129,5.93,8.539,5.829,7.961,6.37C7.714,6.601,7.426,6.786,7.157,6.99c-1.732,1.313-3.342,2.773-4.958,4.223
		c-0.084,0.075-0.236,0.128-0.17,0.286c0.064,0.155,0.211,0.211,0.362,0.191c0.253-0.033,0.503-0.091,0.752-0.144
		c1.224-0.254,2.352,0.018,3.371,0.689c0.605,0.397,0.925,1.024,1.099,1.734c0.12,0.492,0.069,0.56,0.569,0.296
		c1.138-0.599,2.253-0.37,3.314,0.174c0.719,0.367,1.032,1.061,1.145,1.843c0.02,0.134,0.026,0.281,0.181,0.33
		c0.153,0.049,0.237-0.069,0.337-0.163c0.34-0.318,0.703-0.56,1.195-0.631c0.811-0.118,1.373,0.288,1.912,0.779
		c0.378,0.345,0.636,0.765,0.688,1.286c0.015,0.147,0.004,0.31,0.175,0.365c0.157,0.052,0.241-0.093,0.332-0.183
		c0.557-0.553,1.224-0.906,1.981-1.083c1.247-0.29,2.433-0.018,3.517,0.573c1.106,0.606,2.05,1.455,2.957,2.332
		c0.286,0.277,0.545,0.584,0.813,0.877c0.103,0.111,0.216,0.136,0.363,0.092c0.183-0.054,0.104-0.188,0.119-0.299
		c0.104-0.769,0.101-1.547,0.246-2.313c0.202-1.059,0.475-2.08,1.168-2.94c0.325-0.404,0.628-0.816,1.138-1.029
		c0.569-0.237,1.146-0.289,1.746-0.196c0.313,0.049,0.394-0.041,0.407-0.344c0.019-0.387,0.054-0.777,0.24-1.129
		c0.592-1.116,2.065-1.762,3.283-1.437c0.112,0.029,0.219,0.05,0.313-0.028c0.104-0.087,0.062-0.192,0.024-0.301
		c-0.14-0.401-0.156-0.827-0.08-1.229c0.197-1.037,0.871-1.74,1.746-2.262c0.489-0.292,0.995-0.56,1.604-0.532
		c0.215,0.01,0.32-0.163,0.164-0.349c-0.187-0.223-0.233-0.475-0.252-0.745c-0.057-0.481-0.01-0.965,0.196-1.394
		c0.377-0.783,0.955-1.393,1.719-1.832c0.372-0.215,0.772-0.357,1.162-0.52c0.531-0.222,1.079-0.456,1.687-0.275
		c0.146,0.043,0.256-0.077,0.282-0.173C44.046,1.386,43.9,1.347,43.779,1.308"/>
	<path opacity="0.35" fill="#CC3B17" d="M61.499,18.165c-0.56-0.543-1.191-0.994-1.846-1.412c-0.656-0.42-1.336-0.795-2.078-1.045
		c-0.461-0.154-0.925-0.174-1.396-0.025c-0.359,0.112-0.694,0.277-1.035,0.43c-0.402,0.18-0.827,0.313-1.221,0.503
		c-0.633,0.306-1.307,0.251-1.966,0.329c-0.108,0.012-0.149-0.038-0.121-0.158c0.125-0.522,0.15-1.052,0.103-1.587
		c-0.014-0.146-0.03-0.284-0.099-0.417c-0.108-0.212-0.19-0.223-0.371-0.07c-0.308,0.259-0.446,0.596-0.479,0.983
		c-0.011,0.132-0.071,0.174-0.19,0.155c-0.493-0.076-0.988-0.144-1.473-0.268c-0.049-0.012-0.084-0.026-0.088-0.087
		c-0.007-0.151-0.058-0.312-0.023-0.451c0.072-0.297-0.079-0.521-0.188-0.763c-0.045-0.099-0.103-0.118-0.195-0.027
		c-0.22,0.216-0.361,0.482-0.507,0.746c-0.188,0.343-0.22,0.728-0.254,1.107c-0.012,0.122-0.027,0.187-0.173,0.15
		c-0.426-0.105-0.828-0.265-1.217-0.466c-0.893-0.463-1.466-1.24-2.021-2.037c-0.296-0.427-0.55-0.881-0.861-1.298
		c-0.232-0.311-0.494-0.501-0.904-0.376c-0.175,0.054-0.359,0.074-0.538,0.109c-1.155,0.225-2.284,0.55-3.415,0.869
		c-0.059,0.016-0.146,0.005-0.15,0.098c-0.006,0.091,0.052,0.153,0.13,0.18c0.131,0.044,0.266,0.075,0.399,0.109
		c0.654,0.169,1.138,0.569,1.473,1.139c0.199,0.338,0.205,0.718,0.12,1.104c-0.059,0.268-0.1,0.288,0.206,0.279
		c0.695-0.02,1.183,0.357,1.568,0.875c0.262,0.35,0.248,0.762,0.116,1.168c-0.022,0.07-0.054,0.143,0.009,0.204
		c0.063,0.06,0.133,0.022,0.203,0.001c0.24-0.074,0.475-0.104,0.731-0.021c0.421,0.135,0.598,0.467,0.742,0.834
		c0.102,0.258,0.127,0.523,0.027,0.789c-0.028,0.075-0.072,0.151-0.003,0.219c0.064,0.063,0.141,0.013,0.205-0.01
		c0.402-0.136,0.811-0.147,1.221-0.053c0.675,0.156,1.187,0.571,1.571,1.116c0.394,0.559,0.649,1.196,0.88,1.838
		c0.074,0.203,0.126,0.413,0.187,0.62c0.023,0.078,0.072,0.117,0.154,0.132c0.102,0.017,0.096-0.067,0.129-0.117
		c0.234-0.349,0.418-0.728,0.672-1.064c0.351-0.467,0.727-0.897,1.269-1.15c0.254-0.118,0.5-0.247,0.798-0.229
		c0.333,0.021,0.625,0.133,0.895,0.321c0.141,0.098,0.201,0.074,0.28-0.07c0.101-0.184,0.211-0.364,0.386-0.49
		c0.554-0.402,1.423-0.364,1.938,0.084c0.047,0.042,0.094,0.077,0.158,0.062c0.071-0.018,0.075-0.079,0.083-0.141
		c0.028-0.228,0.122-0.438,0.255-0.616c0.343-0.456,0.838-0.637,1.387-0.682c0.309-0.024,0.617-0.034,0.906,0.125
		c0.103,0.056,0.195-0.004,0.163-0.131c-0.037-0.153,0-0.286,0.056-0.422c0.087-0.247,0.225-0.471,0.428-0.63
		c0.369-0.291,0.796-0.448,1.271-0.48c0.231-0.016,0.46,0.011,0.688,0.025c0.311,0.019,0.633,0.035,0.885,0.268
		c0.061,0.056,0.143,0.024,0.178-0.017C61.61,18.266,61.548,18.212,61.499,18.165"/>
	<path opacity="0.65" fill="#CC3B17" d="M26.647,28.432c-1.004-0.049-1.997,0.053-2.985,0.205c-0.99,0.153-1.967,0.368-2.896,0.759
		c-0.577,0.242-1.042,0.618-1.372,1.162c-0.251,0.414-0.434,0.858-0.634,1.296c-0.236,0.516-0.534,1.006-0.751,1.523
		c-0.352,0.835-1.049,1.354-1.62,1.99c-0.094,0.104-0.176,0.091-0.251-0.05c-0.323-0.61-0.749-1.144-1.251-1.619
		c-0.137-0.131-0.271-0.249-0.449-0.319c-0.286-0.112-0.374-0.054-0.42,0.247c-0.076,0.512,0.076,0.955,0.375,1.357
		c0.102,0.136,0.08,0.229-0.052,0.313c-0.541,0.346-1.077,0.701-1.65,0.994c-0.057,0.029-0.104,0.046-0.158-0.011
		c-0.136-0.14-0.321-0.251-0.407-0.415c-0.183-0.35-0.521-0.437-0.831-0.577c-0.127-0.057-0.198-0.027-0.211,0.14
		c-0.028,0.396,0.061,0.774,0.146,1.151c0.108,0.492,0.405,0.891,0.695,1.287c0.093,0.127,0.132,0.203-0.039,0.292
		c-0.501,0.26-1.025,0.448-1.571,0.584c-1.257,0.313-2.471,0.049-3.685-0.249c-0.648-0.16-1.279-0.384-1.936-0.521
		C4.205,37.869,3.79,37.909,3.5,38.377c-0.124,0.2-0.284,0.377-0.428,0.563c-0.924,1.199-1.739,2.475-2.561,3.744
		c-0.043,0.065-0.135,0.128-0.062,0.223C0.522,43,0.631,43.011,0.729,42.97c0.164-0.068,0.321-0.153,0.479-0.233
		c0.775-0.395,1.583-0.418,2.391-0.153c0.479,0.157,0.81,0.52,1.056,0.965c0.171,0.309,0.149,0.363,0.437,0.096
		c0.655-0.611,1.446-0.661,2.26-0.489c0.55,0.115,0.888,0.524,1.105,1.029c0.038,0.087,0.069,0.185,0.182,0.189
		c0.112,0.004,0.147-0.091,0.197-0.172c0.169-0.275,0.37-0.505,0.688-0.643c0.522-0.228,0.976-0.057,1.428,0.175
		c0.316,0.162,0.566,0.397,0.696,0.739c0.037,0.096,0.06,0.207,0.185,0.213c0.115,0.006,0.146-0.106,0.189-0.184
		c0.273-0.473,0.657-0.832,1.134-1.089c0.785-0.423,1.632-0.457,2.468-0.258c0.854,0.205,1.644,0.604,2.414,1.026
		c0.243,0.134,0.473,0.293,0.707,0.441c0.089,0.056,0.169,0.052,0.261-0.005c0.113-0.069,0.035-0.146,0.025-0.223
		c-0.071-0.535-0.216-1.058-0.258-1.6c-0.058-0.748-0.061-1.484,0.248-2.189c0.145-0.331,0.272-0.664,0.576-0.899
		c0.34-0.264,0.717-0.404,1.138-0.451c0.22-0.024,0.257-0.1,0.211-0.306c-0.059-0.263-0.105-0.532-0.045-0.802
		c0.193-0.859,1.066-1.563,1.944-1.566c0.081,0,0.156-0.006,0.205-0.075c0.054-0.078,0.006-0.141-0.039-0.207
		c-0.167-0.244-0.256-0.527-0.278-0.812c-0.057-0.732,0.268-1.328,0.761-1.838c0.275-0.286,0.566-0.559,0.98-0.651
		c0.146-0.032,0.186-0.168,0.047-0.265c-0.166-0.115-0.244-0.275-0.306-0.454c-0.126-0.313-0.183-0.646-0.123-0.973
		c0.11-0.595,0.388-1.11,0.82-1.545c0.211-0.213,0.454-0.382,0.687-0.562c0.316-0.246,0.642-0.504,1.083-0.493
		c0.106,0.002,0.158-0.099,0.158-0.168C26.84,28.435,26.735,28.436,26.647,28.432"/>
</g>
</svg>
