<?xml version="1.0" encoding="utf-8"?>
<!-- Generator: Adobe Illustrator 16.0.3, SVG Export Plug-In . SVG Version: 6.00 Build 0)  -->
<!DOCTYPE svg PUBLIC "-//W3C//DTD SVG 1.1//EN" "http://www.w3.org/Graphics/SVG/1.1/DTD/svg11.dtd">
<svg version="1.1" id="Calque_1" xmlns="http://www.w3.org/2000/svg" xmlns:xlink="http://www.w3.org/1999/xlink" x="0px" y="0px"
	 width="35px" height="27px" viewBox="0 0 35 27" enable-background="new 0 0 35 27" xml:space="preserve">
<g>
	<g>
		<path opacity="0.35" fill="#E7B949" d="M0.312,5.701c0.481-0.467,1.024-0.854,1.587-1.214c0.563-0.36,1.149-0.683,1.786-0.897
			C4.08,3.456,4.479,3.439,4.885,3.567c0.309,0.096,0.596,0.238,0.89,0.369C6.12,4.09,6.485,4.205,6.823,4.368
			c0.544,0.264,1.123,0.216,1.69,0.283c0.093,0.011,0.128-0.032,0.104-0.137c-0.108-0.448-0.13-0.903-0.088-1.363
			C8.54,3.026,8.555,2.908,8.613,2.793c0.094-0.183,0.164-0.192,0.32-0.062c0.264,0.223,0.384,0.512,0.411,0.846
			c0.009,0.113,0.061,0.149,0.164,0.133c0.424-0.065,0.849-0.124,1.266-0.229c0.042-0.011,0.072-0.023,0.075-0.076
			c0.006-0.13,0.05-0.267,0.021-0.387c-0.063-0.256,0.068-0.449,0.162-0.656c0.039-0.085,0.087-0.102,0.167-0.023
			c0.189,0.186,0.311,0.415,0.436,0.642c0.163,0.294,0.189,0.625,0.219,0.952c0.009,0.104,0.023,0.16,0.148,0.129
			c0.365-0.09,0.711-0.228,1.045-0.401c0.768-0.397,1.26-1.065,1.737-1.75c0.255-0.367,0.472-0.757,0.74-1.115
			c0.2-0.268,0.425-0.43,0.777-0.323c0.15,0.045,0.309,0.063,0.463,0.093c0.992,0.194,1.963,0.473,2.936,0.747
			c0.05,0.014,0.125,0.004,0.129,0.084c0.005,0.078-0.045,0.131-0.112,0.154c-0.112,0.038-0.228,0.065-0.343,0.094
			c-0.563,0.144-0.979,0.489-1.266,0.979c-0.171,0.29-0.176,0.617-0.103,0.949c0.051,0.229,0.085,0.248-0.177,0.24
			c-0.598-0.017-1.016,0.307-1.348,0.752c-0.224,0.301-0.213,0.654-0.1,1.004c0.02,0.06,0.047,0.123-0.008,0.175
			c-0.054,0.052-0.113,0.02-0.173,0.001c-0.208-0.063-0.409-0.09-0.628-0.019c-0.363,0.117-0.514,0.402-0.639,0.717
			c-0.086,0.221-0.109,0.45-0.023,0.678c0.024,0.065,0.062,0.13,0.002,0.188c-0.055,0.054-0.12,0.01-0.176-0.008
			c-0.346-0.117-0.697-0.127-1.049-0.046c-0.58,0.135-1.019,0.491-1.351,0.96c-0.338,0.479-0.558,1.028-0.756,1.579
			c-0.063,0.175-0.108,0.356-0.16,0.533c-0.02,0.067-0.062,0.101-0.133,0.113c-0.087,0.015-0.082-0.057-0.111-0.1
			c-0.201-0.3-0.359-0.625-0.577-0.915c-0.301-0.401-0.625-0.771-1.09-0.988C9.288,8.336,9.077,8.226,8.82,8.241
			C8.534,8.259,8.283,8.355,8.051,8.517C7.93,8.602,7.879,8.581,7.811,8.458C7.724,8.299,7.629,8.144,7.479,8.035
			C7.003,7.69,6.256,7.723,5.814,8.108C5.773,8.144,5.733,8.174,5.678,8.161C5.616,8.146,5.613,8.093,5.606,8.04
			C5.582,7.844,5.501,7.663,5.388,7.511c-0.295-0.393-0.72-0.548-1.192-0.586c-0.264-0.021-0.53-0.029-0.779,0.107
			C3.329,7.079,3.25,7.029,3.276,6.919c0.032-0.132,0-0.246-0.048-0.363C3.154,6.344,3.035,6.152,2.861,6.015
			C2.543,5.766,2.177,5.629,1.768,5.603C1.569,5.589,1.373,5.612,1.176,5.624c-0.267,0.016-0.544,0.031-0.76,0.23
			C0.364,5.902,0.293,5.875,0.263,5.84C0.216,5.788,0.269,5.742,0.312,5.701"/>
		<path opacity="0.65" fill="#E7B949" d="M12.217,12.591c0.862-0.042,1.716,0.046,2.565,0.177c0.852,0.131,1.691,0.317,2.489,0.651
			c0.496,0.208,0.895,0.532,1.179,0.999c0.216,0.356,0.373,0.738,0.545,1.114c0.203,0.443,0.459,0.864,0.646,1.31
			c0.301,0.717,0.901,1.165,1.393,1.711c0.08,0.089,0.151,0.078,0.215-0.043c0.278-0.524,0.643-0.983,1.074-1.391
			c0.119-0.113,0.233-0.214,0.387-0.274c0.246-0.097,0.322-0.047,0.361,0.212c0.066,0.44-0.065,0.821-0.322,1.167
			c-0.087,0.117-0.068,0.196,0.044,0.269c0.465,0.298,0.926,0.603,1.419,0.855c0.048,0.024,0.089,0.039,0.136-0.009
			c0.117-0.12,0.276-0.215,0.35-0.356c0.157-0.3,0.448-0.376,0.714-0.496c0.109-0.049,0.171-0.024,0.182,0.12
			c0.024,0.34-0.053,0.666-0.125,0.99c-0.094,0.423-0.349,0.765-0.598,1.106c-0.08,0.108-0.114,0.174,0.034,0.25
			c0.43,0.224,0.881,0.385,1.35,0.502c1.08,0.268,2.124,0.042,3.167-0.214c0.559-0.137,1.101-0.33,1.664-0.448
			c0.42-0.089,0.777-0.054,1.026,0.349c0.106,0.172,0.244,0.324,0.368,0.484c0.794,1.031,1.495,2.127,2.2,3.218
			c0.037,0.057,0.116,0.11,0.053,0.191c-0.062,0.08-0.155,0.089-0.239,0.054c-0.141-0.059-0.276-0.132-0.413-0.201
			c-0.667-0.339-1.361-0.359-2.055-0.132c-0.412,0.135-0.695,0.446-0.907,0.83c-0.147,0.265-0.128,0.312-0.375,0.082
			c-0.563-0.525-1.243-0.568-1.943-0.421c-0.472,0.1-0.762,0.451-0.95,0.885c-0.033,0.074-0.06,0.159-0.157,0.163
			c-0.096,0.004-0.126-0.078-0.169-0.147c-0.146-0.237-0.318-0.434-0.591-0.552c-0.45-0.196-0.838-0.049-1.227,0.15
			c-0.272,0.14-0.487,0.342-0.599,0.635c-0.032,0.083-0.05,0.178-0.158,0.183c-0.099,0.006-0.125-0.091-0.163-0.157
			c-0.235-0.407-0.564-0.716-0.974-0.937c-0.675-0.363-1.403-0.393-2.122-0.221c-0.734,0.176-1.413,0.519-2.074,0.883
			c-0.209,0.114-0.406,0.251-0.607,0.379c-0.077,0.048-0.146,0.044-0.224-0.004c-0.097-0.06-0.03-0.125-0.022-0.191
			c0.061-0.46,0.185-0.91,0.221-1.375c0.05-0.643,0.053-1.276-0.212-1.882c-0.125-0.285-0.234-0.57-0.496-0.773
			c-0.292-0.227-0.616-0.347-0.978-0.388c-0.188-0.021-0.221-0.085-0.182-0.262c0.051-0.227,0.091-0.457,0.039-0.689
			c-0.166-0.738-0.916-1.343-1.671-1.346c-0.069-0.001-0.134-0.006-0.176-0.065c-0.047-0.067-0.005-0.121,0.033-0.178
			c0.144-0.209,0.22-0.453,0.239-0.697c0.048-0.63-0.23-1.142-0.653-1.581c-0.237-0.246-0.487-0.48-0.844-0.559
			c-0.125-0.028-0.159-0.145-0.04-0.228c0.143-0.099,0.209-0.238,0.262-0.391c0.108-0.27,0.158-0.555,0.106-0.836
			c-0.095-0.511-0.333-0.955-0.705-1.329c-0.181-0.182-0.39-0.327-0.59-0.482c-0.271-0.211-0.552-0.433-0.931-0.424
			c-0.09,0.002-0.136-0.085-0.136-0.144C12.051,12.594,12.142,12.595,12.217,12.591"/>
	</g>
</g>
</svg>
