<?xml version="1.0" encoding="utf-8"?>
<!-- Generator: Adobe Illustrator 16.0.3, SVG Export Plug-In . SVG Version: 6.00 Build 0)  -->
<!DOCTYPE svg PUBLIC "-//W3C//DTD SVG 1.1//EN" "http://www.w3.org/Graphics/SVG/1.1/DTD/svg11.dtd">
<svg version="1.1" id="Calque_1" xmlns="http://www.w3.org/2000/svg" xmlns:xlink="http://www.w3.org/1999/xlink" x="0px" y="0px"
	 width="39px" height="33px" viewBox="0 0 39 33" enable-background="new 0 0 39 33" xml:space="preserve">
<g>
	<g>
		<path opacity="0.35" fill="#E7B949" d="M0.527,26.533c0.625-0.606,1.33-1.109,2.061-1.577c0.731-0.468,1.491-0.887,2.319-1.165
			c0.515-0.173,1.032-0.194,1.559-0.029c0.401,0.125,0.774,0.31,1.155,0.479c0.448,0.2,0.924,0.349,1.362,0.562
			c0.706,0.342,1.458,0.281,2.194,0.367c0.121,0.014,0.167-0.042,0.135-0.177c-0.14-0.583-0.168-1.173-0.114-1.771
			c0.015-0.163,0.034-0.317,0.11-0.465c0.121-0.237,0.212-0.249,0.414-0.08c0.344,0.29,0.498,0.665,0.534,1.099
			c0.012,0.146,0.079,0.194,0.213,0.174c0.551-0.085,1.103-0.161,1.644-0.299c0.054-0.014,0.094-0.029,0.098-0.098
			c0.008-0.168,0.064-0.347,0.026-0.503c-0.081-0.332,0.089-0.583,0.211-0.853c0.049-0.109,0.113-0.131,0.217-0.029
			c0.245,0.24,0.404,0.538,0.565,0.832c0.211,0.383,0.246,0.813,0.284,1.236c0.013,0.136,0.03,0.208,0.193,0.168
			c0.475-0.118,0.924-0.296,1.357-0.521c0.997-0.517,1.636-1.384,2.255-2.273c0.331-0.476,0.613-0.982,0.961-1.448
			c0.26-0.347,0.553-0.559,1.01-0.42c0.195,0.06,0.4,0.083,0.602,0.122c1.288,0.251,2.549,0.614,3.812,0.97
			c0.065,0.019,0.161,0.006,0.168,0.109c0.006,0.102-0.059,0.171-0.146,0.2c-0.146,0.05-0.297,0.085-0.446,0.123
			c-0.73,0.188-1.27,0.635-1.644,1.271c-0.222,0.377-0.229,0.802-0.134,1.232c0.065,0.299,0.111,0.322-0.229,0.313
			c-0.776-0.022-1.32,0.398-1.751,0.977c-0.292,0.391-0.277,0.85-0.13,1.303c0.024,0.078,0.061,0.16-0.011,0.228
			c-0.069,0.067-0.146,0.025-0.226,0.001c-0.269-0.082-0.53-0.115-0.816-0.023c-0.47,0.151-0.667,0.521-0.829,0.932
			c-0.113,0.287-0.141,0.583-0.03,0.88c0.031,0.084,0.081,0.169,0.003,0.244c-0.071,0.07-0.156,0.015-0.229-0.011
			c-0.449-0.151-0.904-0.165-1.362-0.06c-0.753,0.175-1.324,0.638-1.754,1.247c-0.438,0.623-0.724,1.334-0.982,2.051
			c-0.082,0.227-0.14,0.461-0.208,0.692c-0.025,0.087-0.08,0.131-0.172,0.146c-0.113,0.02-0.106-0.075-0.144-0.13
			c-0.262-0.39-0.467-0.813-0.75-1.189c-0.391-0.52-0.811-1.001-1.416-1.283c-0.283-0.132-0.558-0.275-0.89-0.255
			c-0.372,0.023-0.698,0.148-0.999,0.358c-0.157,0.109-0.225,0.082-0.313-0.078c-0.113-0.205-0.236-0.406-0.431-0.548
			c-0.618-0.448-1.589-0.405-2.162,0.095c-0.054,0.046-0.105,0.086-0.177,0.068c-0.08-0.02-0.085-0.088-0.094-0.156
			c-0.031-0.255-0.135-0.49-0.283-0.688c-0.383-0.51-0.936-0.712-1.549-0.762c-0.343-0.028-0.688-0.039-1.011,0.139
			c-0.114,0.063-0.218-0.003-0.183-0.146c0.042-0.171,0.001-0.319-0.062-0.471c-0.098-0.276-0.251-0.525-0.478-0.703
			c-0.412-0.324-0.889-0.501-1.419-0.536c-0.259-0.018-0.514,0.012-0.769,0.028c-0.347,0.021-0.706,0.039-0.987,0.299
			c-0.067,0.063-0.159,0.026-0.199-0.019C0.403,26.646,0.472,26.585,0.527,26.533"/>
		<path opacity="0.65" fill="#E7B949" d="M9.291,0.323c1.12-0.055,2.229,0.06,3.332,0.229c1.104,0.171,2.195,0.411,3.231,0.847
			c0.645,0.271,1.163,0.69,1.531,1.298c0.28,0.462,0.484,0.957,0.708,1.445c0.263,0.575,0.596,1.123,0.838,1.7
			c0.392,0.932,1.17,1.513,1.809,2.223c0.104,0.115,0.196,0.102,0.279-0.057c0.361-0.682,0.836-1.276,1.396-1.808
			c0.153-0.146,0.302-0.277,0.501-0.355c0.319-0.126,0.418-0.061,0.469,0.275c0.086,0.571-0.084,1.066-0.419,1.515
			c-0.112,0.152-0.088,0.255,0.059,0.35c0.604,0.386,1.202,0.782,1.842,1.109c0.063,0.032,0.116,0.051,0.177-0.012
			c0.151-0.156,0.358-0.28,0.454-0.463c0.204-0.391,0.581-0.488,0.928-0.645c0.142-0.064,0.222-0.03,0.235,0.156
			c0.032,0.441-0.067,0.863-0.161,1.285c-0.122,0.549-0.453,0.993-0.777,1.436c-0.104,0.142-0.147,0.227,0.044,0.326
			c0.559,0.29,1.145,0.5,1.754,0.652c1.402,0.349,2.757,0.055,4.111-0.279c0.725-0.178,1.429-0.428,2.161-0.581
			c0.546-0.114,1.009-0.07,1.332,0.453c0.139,0.224,0.317,0.421,0.478,0.629c1.031,1.339,1.94,2.762,2.857,4.179
			c0.048,0.073,0.151,0.144,0.069,0.249c-0.081,0.103-0.202,0.115-0.312,0.069c-0.183-0.076-0.358-0.171-0.535-0.261
			c-0.865-0.44-1.767-0.467-2.668-0.171c-0.535,0.176-0.902,0.58-1.178,1.077c-0.19,0.345-0.167,0.405-0.487,0.106
			c-0.731-0.682-1.614-0.737-2.522-0.546c-0.613,0.129-0.99,0.585-1.234,1.148C29.551,18,29.516,18.11,29.39,18.115
			c-0.125,0.006-0.164-0.101-0.22-0.19c-0.189-0.309-0.414-0.563-0.768-0.718c-0.584-0.254-1.089-0.063-1.594,0.195
			c-0.354,0.181-0.633,0.443-0.777,0.824c-0.041,0.107-0.065,0.231-0.205,0.238c-0.129,0.007-0.163-0.119-0.213-0.204
			c-0.305-0.528-0.732-0.93-1.265-1.217c-0.876-0.472-1.821-0.51-2.755-0.287c-0.953,0.229-1.834,0.674-2.693,1.146
			c-0.271,0.148-0.527,0.326-0.789,0.492c-0.1,0.063-0.189,0.058-0.291-0.006c-0.126-0.077-0.04-0.162-0.028-0.248
			c0.079-0.598,0.24-1.181,0.287-1.785c0.064-0.836,0.067-1.657-0.276-2.444c-0.162-0.369-0.305-0.741-0.644-1.004
			c-0.379-0.294-0.801-0.45-1.27-0.504c-0.245-0.027-0.287-0.11-0.235-0.341c0.064-0.293,0.118-0.594,0.05-0.896
			c-0.216-0.958-1.189-1.742-2.17-1.747c-0.09-0.001-0.174-0.007-0.229-0.084c-0.061-0.088-0.007-0.157,0.043-0.231
			c0.187-0.272,0.286-0.588,0.311-0.905c0.063-0.817-0.298-1.482-0.848-2.053c-0.309-0.318-0.633-0.622-1.096-0.726
			c-0.163-0.036-0.207-0.188-0.052-0.295c0.186-0.13,0.272-0.309,0.341-0.508c0.141-0.35,0.204-0.722,0.137-1.086
			c-0.123-0.663-0.433-1.238-0.915-1.724c-0.235-0.237-0.507-0.426-0.767-0.627C10.108,0.907,9.745,0.62,9.252,0.631
			c-0.118,0.002-0.177-0.11-0.177-0.188C9.075,0.327,9.193,0.328,9.291,0.323"/>
	</g>
</g>
</svg>
