<?xml version="1.0" encoding="utf-8"?>
<!-- Generator: Adobe Illustrator 16.0.3, SVG Export Plug-In . SVG Version: 6.00 Build 0)  -->
<!DOCTYPE svg PUBLIC "-//W3C//DTD SVG 1.1//EN" "http://www.w3.org/Graphics/SVG/1.1/DTD/svg11.dtd">
<svg version="1.1" id="Calque_1" xmlns="http://www.w3.org/2000/svg" xmlns:xlink="http://www.w3.org/1999/xlink" x="0px" y="0px"
	 width="52px" height="69px" viewBox="0 0 52 69" enable-background="new 0 0 52 69" xml:space="preserve">
<g>
	<g>
		<path fill="#E7B949" d="M37.151,1.601c-1.206-0.392-2.449-0.596-3.704-0.738C32.191,0.721,30.93,0.66,29.67,0.827
			c-0.783,0.104-1.474,0.409-2.056,0.962c-0.443,0.422-0.813,0.902-1.202,1.368c-0.457,0.55-0.982,1.048-1.419,1.607
			c-0.704,0.9-1.725,1.303-2.632,1.888c-0.148,0.095-0.244,0.052-0.289-0.145c-0.192-0.851-0.534-1.641-0.987-2.386
			c-0.125-0.205-0.248-0.393-0.442-0.538c-0.312-0.232-0.438-0.189-0.593,0.162c-0.264,0.598-0.225,1.188,0.007,1.777
			c0.079,0.199,0.021,0.304-0.167,0.363c-0.774,0.242-1.544,0.497-2.34,0.665c-0.079,0.017-0.141,0.021-0.189-0.065
			c-0.119-0.214-0.308-0.412-0.358-0.64c-0.106-0.486-0.489-0.704-0.821-0.978c-0.135-0.112-0.233-0.099-0.303,0.101
			c-0.167,0.472-0.183,0.962-0.205,1.451c-0.03,0.635,0.199,1.219,0.421,1.797c0.071,0.185,0.094,0.291-0.145,0.342
			c-0.696,0.151-1.396,0.206-2.107,0.191c-1.633-0.035-3.025-0.758-4.404-1.524c-0.738-0.41-1.433-0.89-2.185-1.275
			C6.692,5.664,6.174,5.575,5.667,6.05C5.449,6.253,5.196,6.415,4.959,6.595C3.436,7.75,2.021,9.033,0.601,10.307
			c-0.074,0.066-0.207,0.112-0.149,0.251c0.057,0.136,0.186,0.185,0.319,0.168c0.222-0.029,0.442-0.08,0.661-0.125
			c1.075-0.224,2.067,0.015,2.963,0.605c0.532,0.35,0.813,0.9,0.966,1.525c0.105,0.433,0.061,0.492,0.5,0.26
			c1-0.526,1.98-0.326,2.914,0.153c0.632,0.323,0.908,0.933,1.006,1.62c0.017,0.119,0.023,0.248,0.159,0.291
			s0.209-0.061,0.296-0.143c0.299-0.28,0.619-0.492,1.051-0.555c0.712-0.104,1.207,0.253,1.681,0.685
			c0.332,0.302,0.56,0.672,0.604,1.13c0.013,0.129,0.002,0.272,0.153,0.321c0.138,0.046,0.212-0.082,0.292-0.16
			c0.489-0.487,1.076-0.796,1.742-0.952c1.096-0.255,2.139-0.016,3.091,0.504c0.973,0.532,1.802,1.279,2.6,2.049
			c0.251,0.243,0.478,0.513,0.715,0.771c0.089,0.098,0.188,0.119,0.319,0.08c0.16-0.047,0.09-0.166,0.104-0.262
			c0.091-0.676,0.089-1.36,0.217-2.034c0.177-0.93,0.417-1.828,1.027-2.585c0.286-0.355,0.552-0.718,1-0.904
			c0.5-0.208,1.007-0.254,1.535-0.173c0.275,0.042,0.346-0.035,0.358-0.302c0.016-0.34,0.047-0.683,0.211-0.992
			c0.52-0.982,1.815-1.549,2.886-1.263c0.099,0.026,0.192,0.044,0.274-0.024c0.092-0.077,0.054-0.169,0.021-0.265
			c-0.122-0.353-0.137-0.727-0.07-1.081c0.174-0.911,0.765-1.529,1.535-1.987c0.431-0.257,0.875-0.493,1.411-0.468
			c0.188,0.009,0.281-0.144,0.144-0.306c-0.164-0.196-0.205-0.417-0.221-0.655c-0.051-0.424-0.01-0.848,0.172-1.225
			c0.331-0.688,0.839-1.224,1.51-1.611c0.328-0.189,0.679-0.314,1.022-0.457c0.466-0.195,0.948-0.401,1.482-0.242
			c0.128,0.037,0.225-0.068,0.249-0.152C37.386,1.669,37.257,1.635,37.151,1.601"/>
		<path opacity="0.35" fill="#E7B949" d="M28.509,18.538c-0.685,0.047-1.35,0.195-2.008,0.376c-0.66,0.183-1.305,0.406-1.904,0.745
			c-0.373,0.21-0.657,0.502-0.838,0.897c-0.138,0.301-0.227,0.617-0.327,0.929c-0.119,0.368-0.282,0.725-0.389,1.093
			c-0.171,0.594-0.603,1.002-0.94,1.479c-0.055,0.078-0.112,0.075-0.174-0.015c-0.269-0.388-0.599-0.716-0.977-0.999
			c-0.104-0.078-0.204-0.147-0.331-0.181c-0.203-0.054-0.257-0.007-0.265,0.201c-0.012,0.354,0.127,0.642,0.362,0.891
			c0.08,0.084,0.072,0.149-0.01,0.216c-0.339,0.277-0.675,0.561-1.041,0.805c-0.036,0.024-0.066,0.04-0.108,0.005
			c-0.103-0.083-0.238-0.144-0.309-0.249c-0.151-0.222-0.388-0.255-0.61-0.325c-0.091-0.029-0.137-0.002-0.132,0.111
			c0.012,0.271,0.103,0.52,0.19,0.77c0.113,0.325,0.346,0.571,0.574,0.817c0.073,0.079,0.105,0.127-0.003,0.202
			c-0.319,0.216-0.66,0.385-1.02,0.521c-0.828,0.312-1.671,0.229-2.519,0.124c-0.454-0.057-0.899-0.159-1.355-0.2
			c-0.34-0.031-0.618,0.029-0.777,0.37c-0.068,0.146-0.163,0.278-0.245,0.417c-0.532,0.887-0.983,1.816-1.439,2.743
			c-0.024,0.048-0.082,0.098-0.025,0.157c0.056,0.057,0.131,0.055,0.194,0.02c0.106-0.06,0.206-0.129,0.307-0.197
			c0.495-0.329,1.041-0.409,1.61-0.293c0.337,0.068,0.589,0.288,0.792,0.57c0.141,0.196,0.13,0.234,0.304,0.03
			c0.396-0.466,0.928-0.563,1.494-0.511c0.382,0.035,0.644,0.285,0.832,0.61c0.033,0.056,0.062,0.12,0.139,0.114
			c0.077-0.006,0.093-0.073,0.12-0.132c0.093-0.201,0.211-0.372,0.416-0.491c0.336-0.195,0.657-0.116,0.982,0.005
			c0.228,0.085,0.417,0.225,0.532,0.445c0.032,0.063,0.056,0.136,0.142,0.13c0.079-0.005,0.09-0.084,0.114-0.139
			c0.147-0.343,0.38-0.617,0.683-0.829c0.499-0.349,1.071-0.44,1.654-0.371c0.596,0.071,1.163,0.279,1.719,0.505
			c0.176,0.071,0.344,0.161,0.515,0.243c0.064,0.031,0.119,0.022,0.177-0.024c0.071-0.056,0.012-0.102-0.001-0.153
			c-0.091-0.357-0.229-0.7-0.301-1.064c-0.099-0.503-0.16-1.002-0.006-1.505c0.072-0.235,0.133-0.472,0.319-0.656
			c0.209-0.206,0.455-0.331,0.736-0.397c0.147-0.033,0.167-0.087,0.119-0.223c-0.061-0.175-0.115-0.353-0.095-0.541
			c0.063-0.598,0.6-1.144,1.194-1.217c0.055-0.006,0.105-0.016,0.133-0.067c0.03-0.057-0.007-0.096-0.043-0.137
			c-0.132-0.152-0.215-0.337-0.253-0.528c-0.097-0.493,0.076-0.923,0.369-1.308c0.165-0.216,0.34-0.424,0.614-0.52
			c0.096-0.034,0.112-0.129,0.01-0.183c-0.122-0.065-0.187-0.168-0.243-0.285c-0.111-0.202-0.176-0.423-0.161-0.649
			c0.028-0.412,0.175-0.784,0.434-1.113c0.126-0.161,0.277-0.295,0.421-0.435c0.195-0.192,0.395-0.393,0.695-0.421
			c0.072-0.007,0.1-0.079,0.094-0.126C28.641,18.525,28.57,18.534,28.509,18.538"/>
		<path opacity="0.65" fill="#E7B949" d="M51.503,65.322c-0.484-0.739-1.071-1.392-1.69-2.015c-0.621-0.625-1.279-1.208-2.037-1.667
			c-0.471-0.284-0.978-0.42-1.536-0.373c-0.424,0.035-0.834,0.135-1.249,0.219c-0.488,0.099-0.991,0.141-1.471,0.254
			c-0.775,0.182-1.505-0.044-2.252-0.122c-0.123-0.013-0.156-0.079-0.094-0.205c0.267-0.546,0.426-1.124,0.504-1.726
			c0.022-0.166,0.037-0.321-0.005-0.485c-0.068-0.261-0.155-0.293-0.392-0.17c-0.404,0.21-0.641,0.548-0.771,0.969
			c-0.044,0.143-0.121,0.175-0.249,0.125c-0.526-0.206-1.055-0.403-1.56-0.659c-0.05-0.025-0.086-0.05-0.075-0.118
			c0.029-0.169,0.012-0.358,0.084-0.504c0.154-0.31,0.042-0.596-0.02-0.889c-0.025-0.12-0.083-0.155-0.208-0.077
			c-0.296,0.184-0.519,0.443-0.744,0.698c-0.293,0.333-0.422,0.749-0.554,1.161c-0.042,0.13-0.076,0.198-0.228,0.122
			c-0.444-0.221-0.849-0.496-1.228-0.814c-0.872-0.731-1.313-1.73-1.728-2.748c-0.223-0.544-0.39-1.108-0.631-1.645
			c-0.18-0.401-0.423-0.675-0.906-0.639c-0.206,0.015-0.415-0.006-0.622-0.012c-1.33-0.037-2.658,0.043-3.985,0.116
			c-0.069,0.003-0.161-0.03-0.191,0.071c-0.028,0.1,0.02,0.183,0.1,0.23c0.133,0.082,0.275,0.149,0.414,0.22
			c0.681,0.347,1.117,0.909,1.346,1.62c0.136,0.422,0.049,0.843-0.14,1.25c-0.131,0.281-0.181,0.293,0.158,0.359
			c0.773,0.15,1.218,0.687,1.516,1.354c0.202,0.451,0.086,0.902-0.16,1.318c-0.042,0.072-0.095,0.145-0.041,0.227
			c0.055,0.082,0.141,0.058,0.224,0.052c0.284-0.023,0.55,0.002,0.813,0.156c0.432,0.253,0.545,0.664,0.614,1.105
			c0.049,0.309,0.011,0.608-0.165,0.877c-0.049,0.076-0.116,0.148-0.056,0.241c0.056,0.085,0.151,0.049,0.229,0.041
			c0.477-0.051,0.931,0.036,1.36,0.242c0.706,0.339,1.168,0.923,1.459,1.621c0.296,0.713,0.421,1.48,0.518,2.246
			c0.031,0.242,0.037,0.487,0.052,0.731c0.006,0.092,0.051,0.147,0.138,0.183c0.108,0.044,0.122-0.05,0.171-0.097
			c0.345-0.327,0.641-0.7,1.004-1.01c0.502-0.428,1.023-0.811,1.685-0.957c0.31-0.067,0.613-0.149,0.937-0.055
			c0.363,0.105,0.658,0.301,0.909,0.575c0.131,0.143,0.204,0.131,0.327-0.008c0.156-0.178,0.323-0.35,0.546-0.447
			c0.71-0.306,1.661-0.049,2.119,0.572c0.042,0.058,0.085,0.108,0.16,0.106c0.083-0.001,0.103-0.068,0.126-0.134
			c0.087-0.246,0.243-0.456,0.433-0.618c0.492-0.418,1.083-0.497,1.7-0.41c0.347,0.048,0.689,0.114,0.97,0.36
			c0.099,0.087,0.216,0.045,0.212-0.104c-0.004-0.178,0.07-0.316,0.166-0.452c0.157-0.251,0.364-0.465,0.628-0.59
			c0.479-0.229,0.989-0.298,1.522-0.216c0.259,0.041,0.505,0.125,0.754,0.198c0.339,0.097,0.689,0.195,0.91,0.515
			c0.054,0.077,0.152,0.061,0.202,0.025C51.601,65.461,51.546,65.387,51.503,65.322"/>
	</g>
</g>
</svg>
